<?xml version="1.0"?>
<svg viewBox="0 0 350 100" xmlns="http://www.w3.org/2000/svg" xmlns:svg="http://www.w3.org/2000/svg">
 <g transform="scale(0.4)" class="layer">
  <ellipse cx="111.5" cy="101" fill="#ffffff" id="svg_9" rx="89.5" ry="89" stroke="#ffffff" stroke-dasharray="null" stroke-linecap="null" stroke-linejoin="null"/>
  <path style="fill:#4687FF !important" clip-rule="evenodd" d="m39.58,154.6c-11.11,-15.31 -17.07,-33.75 -17.04,-52.66c0,-49.54 40.08,-89.71 89.52,-89.71c49.44,0 89.51,40.17 89.51,89.71c0.03,18.91 -5.94,37.35 -17.04,52.66l-43,-69.97l-4.15,7.03l4.21,19.53l-29.54,-50.63l-18.28,30.93l4.26,19.73l-15.49,-26.52l-42.96,69.9z" fill="#4687ff" fill-rule="evenodd" id="logo" transform="matrix(1, 0, 0, 1, 0, 0)"/>
  <path d="m657.95,76.5c-0.01,-2.06 0.81,-4.03 2.26,-5.49c1.45,-1.46 3.43,-2.29 5.49,-2.29c2.06,0 4.04,0.82 5.49,2.28c1.46,1.46 2.28,3.44 2.28,5.5c0.01,1.03 -0.2,2.04 -0.59,2.98c-0.39,0.95 -0.96,1.8 -1.68,2.53c-0.72,0.72 -1.58,1.29 -2.53,1.68c-0.94,0.39 -1.95,0.59 -2.97,0.59c-1.02,0 -2.03,-0.2 -2.98,-0.59c-0.94,-0.39 -1.79,-0.97 -2.51,-1.69c-0.72,-0.72 -1.29,-1.58 -1.68,-2.52c-0.39,-0.95 -0.59,-1.96 -0.58,-2.98zm1.47,0c-0.01,0.84 0.14,1.66 0.46,2.43c0.31,0.77 0.77,1.47 1.35,2.06c0.59,0.59 1.28,1.06 2.05,1.38c0.76,0.33 1.59,0.49 2.42,0.5c1.68,-0.01 3.28,-0.69 4.47,-1.88c1.18,-1.19 1.84,-2.81 1.84,-4.49c0,-1.68 -0.66,-3.29 -1.84,-4.48c-1.19,-1.2 -2.79,-1.87 -4.47,-1.89c-0.83,0.01 -1.66,0.18 -2.42,0.5c-0.77,0.32 -1.46,0.79 -2.05,1.38c-0.58,0.6 -1.04,1.3 -1.35,2.07c-0.32,0.77 -0.47,1.59 -0.46,2.42l0,0zm5.13,4.41l-1.84,0l0,-8.89l3.51,0c1.73,0 3.17,0.91 3.17,2.8c0.02,0.55 -0.13,1.1 -0.43,1.56c-0.31,0.46 -0.75,0.8 -1.27,0.99l1.84,3.54l-2.01,0l-1.61,-3.2l-1.36,0l0,3.2zm1.53,-7.13l-1.53,0l0,2.2l1.56,0c0.67,0 1.41,-0.28 1.41,-1.1c0,-0.83 -0.75,-1.07 -1.46,-1.07l0.02,-0.03z" fill="#383C43" id="svg_1"/>
  <path clip-rule="evenodd" d="m293.87,137.79l-31.74,-47.64l0,47.64l-14.12,0l0,-69.07l16.32,0l29.98,45.07l0,-45.07l14.12,0l0,69.07l-14.56,0z" fill="#383C43" fill-rule="evenodd" id="svg_2"/>
  <path clip-rule="evenodd" d="m340.78,89.62c-14.28,0 -25.84,10.68 -25.84,24.7c0,14.21 11.37,24.52 25.68,24.52c14.31,0 25.76,-10.58 25.76,-24.78c-0.02,-14.03 -11.4,-24.44 -25.6,-24.44zm-0.09,36.61c-6.44,0 -11.64,-4.94 -11.64,-12.08c0,-7.15 5.14,-12 11.56,-12c6.42,0 11.64,4.94 11.64,12c0,7.05 -5.12,12.05 -11.56,12.05l0,0.03z" fill="#383C43" fill-rule="evenodd" id="svg_3"/>
  <path clip-rule="evenodd" d="m402,90.69l0,13.5c-1.45,-0.25 -2.92,-0.37 -4.4,-0.35c-6.6,0 -11.19,4.58 -11.19,13.31l0,20.64l-13.51,0l0,-47.1l13.06,0l0,6.88l0.18,0c2.56,-5.38 7.34,-7.41 12.17,-7.41c1.25,0.04 2.49,0.21 3.69,0.53z" fill="#383C43" fill-rule="evenodd" id="svg_4"/>
  <path clip-rule="evenodd" d="m441.38,68.72l0,27.35l-0.17,0c-4.85,-5.74 -11.38,-6.27 -14.12,-6.27c-13.49,0 -22.58,12.44 -22.58,24.35c0,12.7 8.74,24.52 22.4,24.52c3.18,0 10.28,-0.44 14.68,-6.89l0.18,0l0,6.01l13.31,0l0,-69.07l-13.7,0zm-11.29,57.51c-6.43,0 -11.64,-4.94 -11.64,-12.08c0,-7.15 5.21,-11.91 11.64,-11.91c6.44,0 11.65,4.85 11.65,11.91c0,7.05 -5.21,12.05 -11.65,12.05l0,0.03z" fill="#383C43" fill-rule="evenodd" id="svg_5"/>
  <path clip-rule="evenodd" d="m484.3,137.79l-24.96,-69.07l15.44,0l17.9,52.48l17.99,-52.48l15.18,0l-25.05,69.07l-16.5,0z" fill="#383C43" fill-rule="evenodd" id="svg_6"/>
  <path clip-rule="evenodd" d="m557.37,68.72l-25.68,0l0,69.07l14.3,0l0,-24.35l10.83,0c14.47,0 25.23,-7.34 25.23,-22.58c0.02,-14.64 -10.82,-22.14 -24.68,-22.14zm-1.14,31.4l-10.23,0l0,-17.9l10.14,0c5.92,0 11.56,2.29 11.56,9c0,6.43 -5.83,8.9 -11.47,8.9z" fill="#383C43" fill-rule="evenodd" id="svg_7"/>
  <path clip-rule="evenodd" d="m635.14,137.79l-31.76,-47.64l0,47.64l-14.11,0l0,-69.07l16.32,0l29.99,45.07l0,-45.07l14.11,0l0,69.07l-14.55,0z" fill="#383C43" fill-rule="evenodd" id="svg_8"/>
 </g>
</svg>